<?xml version="1.0" encoding="UTF-8"?>
<!-- Generator: Adobe Illustrator 23.0.2, SVG Export Plug-In . SVG Version: 6.00 Build 0)  -->
<svg version="1.1" id="Layer_1" xmlns="http://www.w3.org/2000/svg" xmlns:xlink="http://www.w3.org/1999/xlink" x="0px" y="0px" viewBox="0 0 278.24 28.8" style="enable-background:new 0 0 278.24 28.8;" xml:space="preserve">
<style type="text/css">
	.st0{stroke:#000000;stroke-width:0.2;}
	.st1{fill:#7A0019;}
	.st2{fill:#FFFFFF;stroke:#FFFFFF;stroke-width:0.2;}
	.st3{fill:#FFCD34;}
	.st4{stroke:#000000;stroke-width:0.2;stroke-miterlimit:10;}
	.st5{fill:#FFFFFF;stroke:#FFFFFF;stroke-width:0.2;stroke-miterlimit:10;}
	.st6{stroke:#000000;stroke-width:0.1;stroke-miterlimit:10;}
	.st7{fill:#FFFFFF;stroke:#FFFFFF;stroke-width:0.1;stroke-miterlimit:10;}
</style>
<g>
	<path class="st7" d="M268.83,10.72l0.08,2.72h-0.36c-0.33-1.74-0.75-2.03-3.05-2.03v8.12c0,0.95,0.49,1.37,1.37,1.37v0.38h-4.25   v-0.38c0.89,0,1.37-0.42,1.37-1.37v-8.12c-2.29,0-2.72,0.29-3.05,2.03h-0.35l0.08-2.72H268.83z"/>
	<path class="st7" d="M254.72,10.52c-2.61,0-4.72,2.14-4.72,5.47s2.11,5.47,4.72,5.47c2.61,0,4.72-2.14,4.72-5.47   S257.33,10.52,254.72,10.52z M254.72,20.85c-1.98,0-3.11-1.9-3.11-4.85c0-2.95,1.13-4.85,3.11-4.85c1.98,0,3.11,1.9,3.11,4.85   C257.83,18.94,256.7,20.85,254.72,20.85z"/>
	<path class="st7" d="M277.07,19.99c-0.19-0.49-3.73-9.41-3.73-9.41h-0.36c0,0-3.13,8.18-3.51,9.14c-0.39,0.96-0.85,1.2-1.22,1.2   v0.38h2.88v-0.38c-0.42,0-0.9-0.3-0.9-0.76c0-0.14,0.01-0.3,0.05-0.4c0.03-0.08,0.32-0.88,0.7-1.91h3.66   c0.37,1.01,0.66,1.8,0.67,1.84c0.05,0.14,0.11,0.33,0.11,0.47c0,0.41-0.33,0.76-0.95,0.76v0.38h3.71v-0.38   C277.74,20.91,277.27,20.48,277.07,19.99z M271.26,17.1c0.72-1.94,1.56-4.23,1.56-4.23s0.85,2.3,1.55,4.23H271.26z"/>
	<path class="st7" d="M239.49,18.54c-0.47,1.1-1.07,2.06-2.74,2.06c-0.36,0-1.1,0-1.68,0c-0.61,0-0.88-0.21-0.88-0.72   c0-0.2,0-1.94,0-3.76c0.41,0,1.66,0,2.28,0c0.88,0,1.34,0.5,1.48,1.43h0.36v-3.65h-0.38c-0.05,1.01-0.58,1.51-1.37,1.51   c-0.68,0-1.98,0-2.36,0c0-1.74,0-3.36,0-3.54c0-0.39,0.25-0.47,0.57-0.47c0.33,0,1.07,0,2.03,0c1.26,0,1.7,0.52,1.98,1.7h0.36   l-0.08-2.39h-7.6v0.39c0.89,0,1.29,0.42,1.29,1.37v7.05c0,0.95-0.41,1.37-1.29,1.37v0.38h7.8l0.68-2.74H239.49z"/>
	<path class="st5" d="M247.53,10.5l0.3,3.49h-0.39c-0.52-1.72-1.4-2.77-2.66-2.77c-0.91,0-1.43,0.61-1.43,1.43   c0,0.93,0.69,1.48,1.54,2.06c0.85,0.57,1.43,0.96,1.7,1.15c0.79,0.55,1.54,1.53,1.54,2.66c0,1.72-1.29,2.99-2.99,2.99   c-1.04,0-1.7-0.52-2.22-0.52c-0.29,0-0.43,0.29-0.49,0.52h-0.36L241.63,18h0.39c0.64,1.8,1.59,2.85,2.91,2.85   c0.99,0,1.73-0.68,1.73-1.78c0-1-0.53-1.48-1.15-1.92c-0.7-0.49-1.56-1.1-2.09-1.46c-0.82-0.55-1.32-1.31-1.32-2.52   c0-1.45,0.96-2.66,2.61-2.66c0.71,0,1.51,0.47,1.95,0.47c0.33,0,0.47-0.22,0.49-0.47H247.53z"/>
	<path class="st7" d="M226.53,10.72v0.39c0.82,0,1.32,0.63,1.32,1.59c0,0.65,0,3.68,0,5.56l-5.49-7.53h-2.39v0.39   c0.47,0,0.85,0.22,1.04,0.47c0.02,0.03,0.13,0.18,0.3,0.41c0,1.15,0,6.14,0,7.09c0,1.21-0.41,1.84-1.37,1.84v0.38h3.38v-0.38   c-0.82,0-1.32-0.55-1.32-1.51c0-0.78,0-4.93,0-6.49c2,2.7,6.31,8.55,6.31,8.55h0.22c0,0,0-7.44,0-8.51c0-1.34,0.55-1.84,1.37-1.84   v-0.39H226.53z"/>
	<path class="st7" d="M214.81,10.72v0.39c0.82,0,1.32,0.63,1.32,1.59c0,0.65,0,3.68,0,5.56l-5.49-7.53h-2.39v0.39   c0.47,0,0.85,0.22,1.04,0.47c0.02,0.03,0.13,0.18,0.3,0.41c0,1.15,0,6.14,0,7.09c0,1.21-0.41,1.84-1.37,1.84v0.38h3.38v-0.38   c-0.82,0-1.32-0.55-1.32-1.51c0-0.78,0-4.93,0-6.49c2,2.7,6.31,8.55,6.31,8.55h0.22c0,0,0-7.44,0-8.51c0-1.34,0.55-1.84,1.37-1.84   v-0.39H214.81z"/>
	<path class="st7" d="M200.65,7.68V7.29h-3.26l-4.26,11.42l-4.28-11.42h-3.32v0.39c1.4,0,1.79,0.77,1.79,2.14s0,8.32,0,8.59   c0,1.99-0.56,2.5-1.81,2.5v0.38h4.31v-0.38c-1.21,0-1.79-0.52-1.79-2.5c0-1.97,0-8.97,0-8.97l4.45,11.88h0.41l4.53-12.1   c0,0,0,8.84,0,9.19c0,1.99-0.45,2.5-1.7,2.5v0.38h4.94v-0.38c-1.21,0-1.67-0.52-1.67-2.5c0-0.77,0-7.63,0-8.78   C198.98,8.03,199.83,7.68,200.65,7.68z"/>
	<path class="st7" d="M204.68,12.48c0-0.95,0.49-1.37,1.37-1.37v-0.39h-4.26v0.39c0.89,0,1.37,0.42,1.37,1.37v7.05   c0,0.95-0.49,1.37-1.37,1.37v0.38h4.26v-0.38c-0.89,0-1.37-0.42-1.37-1.37V12.48z"/>
	<path class="st7" d="M165.73,10.53c-2.61,0-4.72,2.14-4.72,5.47c0,3.33,2.11,5.47,4.72,5.47c2.6,0,4.72-2.14,4.72-5.47   C170.44,12.68,168.33,10.53,165.73,10.53z M165.73,20.86c-1.98,0-3.11-1.9-3.11-4.85c0-2.95,1.13-4.85,3.11-4.85   c1.98,0,3.11,1.9,3.11,4.85C168.83,18.96,167.7,20.86,165.73,20.86z"/>
	<path class="st7" d="M179.6,10.72h-7.68v0.39c0.88,0,1.29,0.42,1.29,1.37v7.05c0,0.95-0.4,1.37-1.29,1.37v0.38H176v-0.38   c-0.85,0-1.35-0.41-1.35-1.37c0-0.19,0-1.74,0-3.41c0.4,0,1.59,0,2.2,0c0.88,0,1.35,0.5,1.48,1.43h0.35v-3.65h-0.38   c-0.05,1.01-0.58,1.51-1.37,1.51c-0.67,0-1.91,0-2.28,0c0-1.72,0-3.36,0-3.54c0-0.39,0.25-0.47,0.58-0.47c0.33,0,1.15,0,2.11,0   c1.26,0,1.7,0.52,1.98,1.7h0.36L179.6,10.72z"/>
	<path class="st7" d="M144.32,10.74l0.08,2.72h-0.36c-0.33-1.74-0.75-2.03-3.05-2.03v8.12c0,0.95,0.49,1.37,1.37,1.37v0.38h-4.25   v-0.38c0.89,0,1.37-0.42,1.37-1.37v-8.12c-2.29,0-2.72,0.29-3.05,2.03h-0.36l0.08-2.72H144.32z"/>
	<path class="st7" d="M152.47,11.12v-0.38h3.24v0.38c-0.47,0-1.2,0.51-1.51,1.02c-0.34,0.56-2.61,4.34-2.61,4.34v3.07   c0,1.03,0.38,1.37,1.48,1.37v0.38h-4.47v-0.38c1.11,0,1.48-0.35,1.48-1.37v-2.91c0,0-2.5-3.98-2.8-4.48   c-0.3-0.49-0.91-1.04-1.48-1.04v-0.38h4.17v0.38c-0.58,0-0.99,0.26-0.99,0.56c0,0.2,0.1,0.43,0.17,0.55   c0.07,0.12,2.11,3.49,2.11,3.49s2.03-3.53,2.08-3.62c0.06-0.1,0.08-0.22,0.08-0.34C153.43,11.46,153.26,11.12,152.47,11.12z"/>
	<path class="st7" d="M127.46,10.5l0.3,3.49h-0.38c-0.52-1.72-1.4-2.77-2.66-2.77c-0.91,0-1.43,0.61-1.43,1.43   c0,0.93,0.69,1.48,1.54,2.06c0.85,0.57,1.43,0.96,1.7,1.15c0.79,0.55,1.54,1.53,1.54,2.66c0,1.72-1.29,2.99-2.99,2.99   c-1.04,0-1.7-0.52-2.23-0.52c-0.29,0-0.42,0.29-0.49,0.52H122L121.56,18h0.39c0.64,1.8,1.59,2.85,2.91,2.85   c0.99,0,1.73-0.68,1.73-1.78c0-1-0.53-1.48-1.15-1.92c-0.7-0.49-1.56-1.1-2.08-1.46c-0.82-0.55-1.32-1.31-1.32-2.52   c0-1.45,0.96-2.66,2.61-2.66c0.71,0,1.51,0.47,1.95,0.47c0.33,0,0.47-0.22,0.49-0.47H127.46z"/>
	<path class="st7" d="M133.28,12.49c0-0.95,0.49-1.37,1.37-1.37v-0.38h-4.25v0.38c0.89,0,1.37,0.42,1.37,1.37v7.05   c0,0.95-0.49,1.37-1.37,1.37v0.38h4.25v-0.38c-0.89,0-1.37-0.42-1.37-1.37V12.49z"/>
	<path class="st7" d="M109.07,18.54c-0.47,1.1-1.07,2.06-2.74,2.06c-0.36,0-1.1,0-1.68,0c-0.61,0-0.88-0.21-0.88-0.72   c0-0.2,0-1.94,0-3.76c0.41,0,1.67,0,2.28,0c0.88,0,1.35,0.5,1.48,1.43h0.36v-3.65h-0.38c-0.06,1.01-0.58,1.51-1.37,1.51   c-0.68,0-1.98,0-2.36,0c0-1.74,0-3.36,0-3.54c0-0.39,0.25-0.47,0.58-0.47c0.33,0,1.07,0,2.03,0c1.26,0,1.7,0.52,1.98,1.7h0.36   l-0.08-2.39h-7.6v0.39c0.89,0,1.29,0.42,1.29,1.37v7.05c0,0.95-0.4,1.37-1.29,1.37v0.38h7.79l0.69-2.74H109.07z"/>
	<path class="st7" d="M119.12,20.44c-0.25-0.29-2.59-3.51-3.11-4.22c1.89-0.4,2.56-1.36,2.56-2.75c0-1.65-1.24-2.74-3.49-2.74   c-0.27,0-4.23,0-4.23,0v0.39c0.89,0,1.29,0.42,1.29,1.37v7.05c0,0.95-0.41,1.37-1.29,1.37v0.38h4.09v-0.38   c-0.89,0-1.29-0.42-1.29-1.37v-3.1c0.28,0,0.55-0.01,0.8-0.02l3.43,4.88h2.31v-0.33C119.81,20.96,119.39,20.77,119.12,20.44z    M113.65,15.8v-3.57c0-0.73,0.15-0.91,0.96-0.91c1.78,0,2.44,0.88,2.44,2.2c0,1.62-1.23,2.28-3.05,2.28   C113.88,15.8,113.76,15.8,113.65,15.8z"/>
	<path class="st7" d="M86.68,12.48c0-0.95,0.48-1.37,1.37-1.37v-0.39H83.8v0.39c0.89,0,1.37,0.42,1.37,1.37v7.05   c0,0.95-0.49,1.37-1.37,1.37v0.38h4.25v-0.38c-0.89,0-1.37-0.42-1.37-1.37V12.48z"/>
	<path class="st7" d="M93.65,11.11v-0.39h-3.87v0.39c0.47,0,0.96,0.3,1.29,1.1c0.33,0.79,3.82,9.25,3.82,9.25h0.25   c0,0,3.05-8.51,3.32-9.25c0.27-0.74,0.74-1.1,1.18-1.1v-0.39h-2.99v0.39c0.66,0,1.02,0.36,1.02,0.82c0,0.14-0.04,0.29-0.08,0.41   c-0.06,0.16-2.22,6.23-2.22,6.23s-2.56-6.13-2.63-6.32c-0.06-0.14-0.09-0.32-0.09-0.48C92.63,11.36,92.98,11.11,93.65,11.11z"/>
	<path class="st7" d="M58.19,7.68c1.15,0,1.76,0.57,1.76,2.22c0,1.65,0,3.82,0,6.53c0,3.3,1.81,5.05,4.97,5.05   c2.72,0,4.8-1.65,4.8-4.83c0-2.94,0-6.04,0-7.14c0-1.1,0.33-1.84,1.65-1.84V7.29h-4.17v0.39c1.18,0,1.67,0.52,1.7,1.95   c0.03,1.43,0.11,5.16,0.11,7.38c0,2.22-1.59,3.62-3.76,3.62c-2.08,0-3.73-1.24-3.73-3.84s0-6.15,0-7.3c0-1.08,0.41-1.81,1.65-1.81   V7.29h-4.97V7.68z"/>
	<path class="st7" d="M78.22,10.72v0.39c0.82,0,1.32,0.63,1.32,1.59c0,0.65,0,3.68,0,5.56l-5.49-7.53h-2.39v0.39   c0.47,0,0.85,0.22,1.04,0.47c0.02,0.03,0.13,0.18,0.3,0.41c0,1.15,0,6.14,0,7.09c0,1.21-0.41,1.84-1.37,1.84v0.38h3.37v-0.38   c-0.82,0-1.32-0.55-1.32-1.51c0-0.78,0-4.93,0-6.49c2,2.7,6.31,8.55,6.31,8.55h0.22c0,0,0-7.44,0-8.51c0-1.34,0.55-1.84,1.37-1.84   v-0.39H78.22z"/>
	<g>
		<path class="st3" d="M51.35,26.2c0.15,0.06,0.28,0.14,0.39,0.25c0.11,0.11,0.2,0.23,0.26,0.36c0.08,0.17,0.12,0.35,0.12,0.54    c0,0.22-0.05,0.42-0.16,0.62c-0.11,0.2-0.26,0.35-0.45,0.46c-0.19,0.11-0.4,0.16-0.61,0.16c-0.21,0-0.41-0.05-0.61-0.16    c-0.19-0.11-0.35-0.26-0.45-0.46c-0.11-0.19-0.16-0.4-0.16-0.62c0-0.18,0.04-0.35,0.11-0.5c0.07-0.15,0.16-0.28,0.27-0.38    c0.11-0.1,0.22-0.18,0.35-0.24c0.17-0.07,0.33-0.11,0.51-0.11C51.05,26.11,51.2,26.14,51.35,26.2z M52.22,26.74    c-0.07-0.15-0.16-0.29-0.28-0.41c-0.12-0.13-0.27-0.23-0.45-0.31c-0.18-0.08-0.38-0.13-0.59-0.13c-0.22,0-0.43,0.05-0.63,0.14    c-0.14,0.07-0.28,0.16-0.4,0.29c-0.12,0.12-0.22,0.27-0.3,0.45c-0.08,0.18-0.12,0.37-0.12,0.58c0,0.25,0.06,0.5,0.19,0.73    c0.13,0.23,0.31,0.41,0.54,0.54c0.23,0.13,0.47,0.19,0.72,0.19c0.22,0,0.44-0.05,0.64-0.15c0.15-0.07,0.29-0.18,0.42-0.31    c0.13-0.13,0.22-0.28,0.3-0.46c0.07-0.18,0.1-0.36,0.1-0.54C52.35,27.14,52.31,26.94,52.22,26.74z M50.85,27.55    c0.09,0,0.16,0.01,0.21,0.04c0.05,0.03,0.08,0.06,0.1,0.1c0.02,0.04,0.03,0.11,0.04,0.21c0.01,0.14,0.02,0.22,0.03,0.24h0.34    c-0.01-0.04-0.02-0.12-0.02-0.21c0-0.1-0.01-0.17-0.02-0.21c-0.01-0.06-0.04-0.12-0.06-0.16c-0.03-0.04-0.07-0.08-0.11-0.1    c-0.04-0.02-0.1-0.04-0.18-0.06c0.08-0.01,0.14-0.02,0.18-0.04c0.06-0.03,0.12-0.08,0.16-0.14c0.04-0.06,0.06-0.13,0.06-0.22    c0-0.08-0.02-0.16-0.06-0.22c-0.04-0.06-0.08-0.11-0.14-0.15c-0.06-0.04-0.13-0.07-0.22-0.08c-0.06-0.01-0.16-0.02-0.29-0.02    h-0.58v1.61h0.36v-0.59H50.85z M51.04,26.81c0.06,0.02,0.1,0.04,0.13,0.08c0.03,0.04,0.05,0.09,0.05,0.14    c0,0.05-0.01,0.1-0.04,0.14c-0.03,0.04-0.07,0.07-0.12,0.09c-0.05,0.02-0.11,0.03-0.17,0.03h-0.24v-0.51h0.24    C50.93,26.79,50.98,26.8,51.04,26.81z"/>
	</g>
	<polygon class="st3" points="45.38,21.45 36.89,7.35 39.23,7.35 39.23,0 25.11,0 25.11,7.35 27.44,7.35 24.2,12.74 20.96,7.35    23.3,7.35 23.3,0 9.17,0 9.17,7.35 11.51,7.35 3.03,21.45 0,21.45 0,28.8 14.4,28.8 14.4,21.45 11.82,21.45 16.24,14.11    17.95,16.95 16.31,16.95 16.31,24.3 32.1,24.3 32.1,16.95 30.45,16.95 32.17,14.11 36.59,21.45 34,21.45 34,28.8 48.4,28.8    48.4,21.45  "/>
</g>
</svg>