<?xml version="1.0" encoding="UTF-8"?>
<svg width="1200pt" height="1200pt" version="1.1" viewBox="0 0 1200 1200" xmlns="http://www.w3.org/2000/svg">
 <g>
  <path d="m600 262.5c-89.512 0-175.36 35.559-238.65 98.852-63.293 63.293-98.852 149.14-98.852 238.65s35.559 175.36 98.852 238.65c63.293 63.293 149.14 98.852 238.65 98.852s175.36-35.559 238.65-98.852c63.293-63.293 98.852-149.14 98.852-238.65s-35.559-175.36-98.852-238.65c-63.293-63.293-149.14-98.852-238.65-98.852zm168.75 318.75c-0.98438-49.598-7.9727-98.895-20.812-146.81 24.113-11.652 46.715-26.195 67.312-43.312 50.035 51.23 80.098 118.67 84.75 190.12zm-78.188-267.19c35.23 11.031 68.102 28.516 96.938 51.562-15.672 12.781-32.715 23.785-50.812 32.812-10.672-30.453-26.254-58.953-46.125-84.375zm11.25 99c-65.82 23.629-137.8 23.629-203.62 0 25.688-71.062 64.312-113.06 101.81-113.06s76.125 42 101.81 112.5zm-237.75-14.625c-18.359-8.9766-35.656-19.984-51.562-32.812 28.613-22.969 61.223-40.449 96.188-51.562-19.281 25.562-34.348 54.047-44.625 84.375zm45.375 487.5c-35.23-11.031-68.102-28.516-96.938-51.562 15.672-12.781 32.715-23.785 50.812-32.812 10.738 30.422 26.312 58.914 46.125 84.375zm-11.25-98.438c65.82-23.629 137.8-23.629 203.62 0-25.688 70.5-64.312 112.5-101.81 112.5s-76.125-42-101.81-112.5zm237.75 14.625c18.332 8.8008 35.629 19.617 51.562 32.25-28.613 22.969-61.223 40.449-96.188 51.562 19.344-25.523 34.414-54.02 44.625-84.375zm-23.438-51c-73.188-25.684-152.94-25.684-226.12 0-10.93-43.305-16.844-87.719-17.625-132.38h262.5c-1.2422 44.691-7.5352 89.098-18.75 132.38zm-243.75-169.88c1.1641-44.695 7.4531-89.113 18.75-132.38 73.047 26.504 153.08 26.504 226.12 0 10.918 43.305 16.832 87.723 17.625 132.38zm-83.625-190.12c20.598 17.117 43.199 31.66 67.312 43.312-12.965 47.902-20.078 97.199-21.188 146.81h-131.25c4.7539-71.508 34.953-138.95 85.125-190.12zm-84.188 227.62h131.25c0.98438 49.598 7.9727 98.895 20.812 146.81-24.113 11.652-46.715 26.195-67.312 43.312-50.035-51.23-80.098-118.67-84.75-190.12zm513.94 190.12c-20.598-17.117-43.199-31.66-67.312-43.312 12.965-47.902 20.078-97.199 21.188-146.81h131.25c-4.7539 71.508-34.953 138.95-85.125 190.12z"/>
  <path d="m1087.5 281.25h-93.75c-79.41-98.773-193.32-163.77-318.75-181.88v-43.125c0-4.9727-1.9766-9.7422-5.4922-13.258-3.5156-3.5156-8.2852-5.4922-13.258-5.4922h-112.5c-4.9727 0-9.7422 1.9766-13.258 5.4922-3.5156 3.5156-5.4922 8.2852-5.4922 13.258v43.125c-125.1 18.336-238.63 83.305-317.81 181.88h-94.688c-4.9727 0-9.7422 1.9766-13.258 5.4922-3.5156 3.5156-5.4922 8.2852-5.4922 13.258v112.5c0 4.9727 1.9766 9.7422 5.4922 13.258 3.5156 3.5156 8.2852 5.4922 13.258 5.4922h10.125c-38.496 109.21-38.496 228.29 0 337.5h-10.125c-4.9727 0-9.7422 1.9766-13.258 5.4922-3.5156 3.5156-5.4922 8.2852-5.4922 13.258v112.5c0 4.9727 1.9766 9.7422 5.4922 13.258 3.5156 3.5156 8.2852 5.4922 13.258 5.4922h94.688c79.41 98.773 193.32 163.77 318.75 181.88v43.125c0 4.9727 1.9766 9.7422 5.4922 13.258 3.5156 3.5156 8.2852 5.4922 13.258 5.4922h112.5c4.9727 0 9.7422-1.9766 13.258-5.4922 3.5156-3.5156 5.4922-8.2852 5.4922-13.258v-43.125c125.1-18.336 238.63-83.305 317.81-181.88h93.75c4.9727 0 9.7422-1.9766 13.258-5.4922 3.5156-3.5156 5.4922-8.2852 5.4922-13.258v-112.5c0-4.9727-1.9766-9.7422-5.4922-13.258-3.5156-3.5156-8.2852-5.4922-13.258-5.4922h-10.125c38.496-109.21 38.496-228.29 0-337.5h10.125c4.9727 0 9.7422-1.9766 13.258-5.4922 3.5156-3.5156 5.4922-8.2852 5.4922-13.258v-112.5c0-4.9727-1.9766-9.7422-5.4922-13.258-3.5156-3.5156-8.2852-5.4922-13.258-5.4922zm-93.75 37.5h75v75h-75zm-431.25-243.75h75v75h-75zm-431.25 243.75h75v75h-75zm0 487.5h75v75h-75zm506.25 318.75h-75v-75h75zm431.25-243.75h-75v-75h75zm0-281.25c0.035156 57.715-10.648 114.93-31.5 168.75h-62.25c-4.9727 0-9.7422 1.9766-13.258 5.4922-3.5156 3.5156-5.4922 8.2852-5.4922 13.258v112.5c-0.10156 1.1211-0.10156 2.2539 0 3.375-71.617 85.117-171.43 141.68-281.25 159.38v-31.5c0-4.9727-1.9766-9.7422-5.4922-13.258-3.5156-3.5156-8.2852-5.4922-13.258-5.4922h-112.5c-4.9727 0-9.7422 1.9766-13.258 5.4922-3.5156 3.5156-5.4922 8.2852-5.4922 13.258v31.5c-109.82-17.699-209.63-74.258-281.25-159.38 0.10156-1.1211 0.10156-2.2539 0-3.375v-112.5c0-4.9727-1.9766-9.7422-5.4922-13.258-3.5156-3.5156-8.2852-5.4922-13.258-5.4922h-62.25c-41.996-108.58-41.996-228.92 0-337.5h62.25c4.9727 0 9.7422-1.9766 13.258-5.4922 3.5156-3.5156 5.4922-8.2852 5.4922-13.258v-112.5c0.10156-1.1211 0.10156-2.2539 0-3.375 71.617-85.117 171.43-141.68 281.25-159.38v31.5c0 4.9727 1.9766 9.7422 5.4922 13.258 3.5156 3.5156 8.2852 5.4922 13.258 5.4922h112.5c4.9727 0 9.7422-1.9766 13.258-5.4922 3.5156-3.5156 5.4922-8.2852 5.4922-13.258v-31.5c109.82 17.699 209.63 74.258 281.25 159.38-0.10156 1.1211-0.10156 2.2539 0 3.375v112.5c0 4.9727 1.9766 9.7422 5.4922 13.258 3.5156 3.5156 8.2852 5.4922 13.258 5.4922h62.25c20.852 53.816 31.535 111.04 31.5 168.75z"/>
 </g>
</svg>
