<?xml version="1.0" encoding="utf-8"?>
<!-- Generator: Adobe Illustrator 28.0.0, SVG Export Plug-In . SVG Version: 6.00 Build 0)  -->
<svg version="1.1" xmlns="http://www.w3.org/2000/svg" xmlns:xlink="http://www.w3.org/1999/xlink" x="0px" y="0px"
	 viewBox="0 0 450 90" style="enable-background:new 0 0 450 90;" xml:space="preserve">
<style type="text/css">
	.st0{fill:#FFFFFF;}
	.st1{fill:none;stroke:#FFFFFF;stroke-width:1.5;stroke-miterlimit:10;}
</style>
<g id="WHITE">
	<path class="st0" d="M67.14,63.09L56.75,47.31c7.53-3.06,11.35-7.83,11.35-14.19c0-4.62-1.84-8.37-5.62-11.49
		c-3.88-3.15-9.17-4.75-15.7-4.75l-38.3,0v10.79c0,0,2.69,0.01,4.29,0.01v35.42H8.47v10.78h28.08V63.09h-4.43V49.52h6.8l8.54,13.57
		h-4.65v10.78h30.15V63.09H67.14z M32.12,27.67l8.59,0c2.73,0,4.81,0.73,6.19,2.15l0.02,0.02c0.94,0.93,1.4,2.06,1.4,3.47
		c0,1.49-0.63,2.75-1.93,3.85l-0.01,0c-1.67,1.31-4.22,1.97-7.58,1.97h-6.68V27.67z"/>
	<g>
		<g>
			<path class="st0" d="M100.1,62.28c-1.97,0-3.62-0.55-5.04-1.54l1.25-2.26c1.1,0.86,2.3,1.37,3.77,1.37
				c1.58,0,2.71-0.79,2.71-2.28c0-1.06-0.6-1.66-1.58-2.14l-2.71-1.3c-1.44-0.7-2.78-1.85-2.78-4.2c0-2.83,2.14-4.87,5.14-4.87
				c1.8,0,3.43,0.58,4.75,1.54l-1.32,2.06c-1.15-0.79-2.06-1.22-3.22-1.22c-1.34,0-2.28,0.72-2.28,1.92c0,0.96,0.43,1.56,1.25,1.94
				l3.14,1.51c1.58,0.77,2.74,2.09,2.74,4.3C105.91,60.46,103.29,62.28,100.1,62.28z"/>
			<path class="st0" d="M112.24,62.28c-1.54,0-2.71-0.58-3.5-1.75c-0.74-1.1-1.13-2.57-1.13-4.46c0-2.52,0.67-4.2,1.73-5.28
				c0.84-0.84,1.87-1.3,3.1-1.3c1.34,0,2.21,0.48,3.1,1.34l-1.3,1.75c-0.53-0.55-1.08-0.86-1.75-0.86c-0.65,0-1.18,0.34-1.51,1.18
				c-0.34,0.86-0.41,1.75-0.41,3.19c0,2.47,0.55,3.98,1.92,3.98c0.82,0,1.51-0.38,2.06-1.1l1.27,1.7
				C114.74,61.9,113.56,62.28,112.24,62.28z"/>
			<path class="st0" d="M123.48,61.99v-8.16c0-0.91-0.1-1.78-1.22-1.78c-0.82,0-1.56,0.58-2.04,1.2v8.74h-2.74V47.57
				c0-0.94-0.02-1.3-0.22-2.64l2.71-0.41c0.17,0.98,0.24,1.99,0.24,3v2.06c0,0.41-0.02,0.84-0.05,1.25
				c0.77-0.84,1.94-1.25,3.07-1.25c2.02,0,2.93,1.3,2.93,3.19v9.22H123.48z"/>
			<path class="st0" d="M133.02,62.31c-3.79,0-4.75-3.53-4.75-6.53c0-2.98,1.25-6.29,4.78-6.29c2.81,0,4.82,2.18,4.82,6.34
				C137.87,58.92,136.69,62.31,133.02,62.31z M133.02,51.65c-1.75,0-1.82,2.66-1.82,4.32c0,1.39,0.05,4.18,1.9,4.18
				c1.8,0,1.8-3.05,1.8-4.32C134.89,54.12,134.82,51.65,133.02,51.65z"/>
			<path class="st0" d="M144.08,62.31c-3.79,0-4.75-3.53-4.75-6.53c0-2.98,1.25-6.29,4.78-6.29c2.81,0,4.82,2.18,4.82,6.34
				C148.92,58.92,147.75,62.31,144.08,62.31z M144.08,51.65c-1.75,0-1.82,2.66-1.82,4.32c0,1.39,0.05,4.18,1.9,4.18
				c1.8,0,1.8-3.05,1.8-4.32C145.95,54.12,145.88,51.65,144.08,51.65z"/>
			<path class="st0" d="M153.47,62.28c-0.91,0-1.51-0.26-1.9-0.7c-0.5-0.58-0.6-1.46-0.6-2.64v-11.3c0-1.32-0.14-2.14-0.22-2.67
				l2.69-0.41c0.07,0.46,0.29,1.49,0.29,3v10.46c0,1.61,0.07,2.06,0.72,2.06c0.1,0,0.26-0.05,0.34-0.07l0.48,1.92
				C154.81,62.16,154.21,62.28,153.47,62.28z"/>
			<path class="st0" d="M165.83,62.31c-3.79,0-4.75-3.53-4.75-6.53c0-2.98,1.25-6.29,4.78-6.29c2.81,0,4.82,2.18,4.82,6.34
				C170.67,58.92,169.5,62.31,165.83,62.31z M165.83,51.65c-1.75,0-1.82,2.66-1.82,4.32c0,1.39,0.05,4.18,1.9,4.18
				c1.8,0,1.8-3.05,1.8-4.32C167.7,54.12,167.63,51.65,165.83,51.65z"/>
			<path class="st0" d="M177.98,46.83c-0.31-0.22-0.82-0.36-1.3-0.36c-0.67,0-1.08,0.55-1.08,1.49v1.87h2.54l-0.5,2.06h-2.04v10.1
				h-2.78v-10.1h-0.94v-2.06h0.94c-0.02-0.55-0.05-0.84-0.05-1.61c0-1.82,0.7-2.78,1.34-3.26c0.65-0.46,1.39-0.6,2.09-0.6
				c1.01,0,1.82,0.19,2.54,0.65L177.98,46.83z"/>
			<path class="st0" d="M192.07,61.99l-1.03-4.13h-4.42l-1.08,4.13h-2.93l4.7-16.61h3.31l4.51,16.61H192.07z M189.43,51.07
				c-0.22-0.86-0.55-2.88-0.55-2.98c-0.02,0.1-0.38,2.09-0.6,2.98l-1.06,4.49h3.26L189.43,51.07z"/>
			<path class="st0" d="M201.94,52.37c-0.24-0.14-0.48-0.24-0.79-0.24c-0.94,0-1.73,0.74-1.73,1.68v8.18h-2.74v-8.93
				c0-1.49-0.22-2.3-0.36-3l2.57-0.55c0.07,0.24,0.29,0.82,0.29,1.51v0.1c0.41-1.08,1.44-1.68,2.5-1.68c0.41,0,0.79,0.14,1.06,0.26
				L201.94,52.37z"/>
			<path class="st0" d="M207.66,62.35c-0.6,0-1.1-0.12-1.56-0.29c-0.86-0.34-1.37-1.18-1.37-2.59v-7.58h-1.1v-2.06h1.1
				c0-1.2,0.12-2.66,0.19-3.1l2.66-0.46c-0.07,0.72-0.12,2.21-0.12,3.55h2.28l-0.46,2.06h-1.85v6.43c0,1.54,0.26,1.97,1.25,1.97
				c0.38,0,0.65-0.1,0.91-0.24l0.38,1.7C209.22,62.19,208.48,62.35,207.66,62.35z"/>
			<path class="st0" d="M215.31,62.33c-1.39,0-2.88-0.5-4.18-1.37l0.96-2.11c0.94,0.7,2.23,1.3,3.31,1.3c0.94,0,1.58-0.6,1.58-1.44
				c0-0.98-0.89-1.3-1.9-1.68l-0.89-0.34c-1.37-0.53-2.59-1.49-2.59-3.29c0-2.38,1.61-3.96,4.01-3.96c1.46,0,2.57,0.36,3.62,1.01
				l-0.86,1.99c-0.86-0.53-1.66-0.86-2.52-0.86c-0.84,0-1.39,0.53-1.39,1.2c0,0.96,0.5,1.3,1.63,1.7l0.98,0.36
				c1.3,0.48,2.62,1.46,2.62,3.36C219.7,60.72,217.93,62.33,215.31,62.33z"/>
			<path class="st0" d="M234.03,62.47c-0.6-0.22-1.2-0.86-1.39-1.46c-0.74,0.79-1.61,1.3-2.86,1.3c-2.62,0-3.53-1.8-3.53-3.74
				c0-2.52,1.92-4.13,5.14-4.13c0.19,0,0.38,0,0.65,0.02v-0.89c0-0.72-0.02-1.2-0.26-1.49c-0.22-0.29-0.53-0.41-1.01-0.41
				c-1.2,0-2.35,0.58-3.17,1.32l-1.1-1.87c1.37-0.98,2.98-1.63,4.63-1.63c1.78,0,3.02,0.74,3.43,2.09c0.17,0.5,0.22,1.08,0.22,1.82
				c0,1.42-0.07,4.63-0.07,4.92c0,1.2,0.14,1.85,0.84,2.33L234.03,62.47z M232.01,56.43c-0.22-0.02-0.31-0.02-0.38-0.02
				c-1.92,0-2.62,0.82-2.62,2.04c0,1.03,0.46,1.68,1.34,1.68c0.67,0,1.34-0.46,1.63-1.08L232.01,56.43z"/>
			<path class="st0" d="M243.47,61.99v-8.21c0-0.94-0.1-1.32-0.31-1.58c-0.19-0.24-0.53-0.31-0.89-0.31c-0.53,0-1.32,0.38-1.97,1.08
				v9.02h-2.71v-8.95c0-1.46-0.22-2.28-0.36-2.95l2.54-0.58c0.07,0.22,0.31,0.82,0.34,1.44c0.7-0.74,1.97-1.37,3.22-1.37
				c0.96,0,1.73,0.34,2.21,0.86c0.55,0.6,0.65,1.42,0.65,2.23v9.31H243.47z"/>
			<path class="st0" d="M255.36,61.99c-0.14-0.31-0.19-0.65-0.22-0.98c-0.62,0.82-1.39,1.22-2.45,1.22c-3.41,0-4.3-3.36-4.3-6.17
				c0-2.71,1.13-6.5,4.44-6.5c0.74,0,1.58,0.34,2.09,0.89c-0.05-0.6-0.1-1.22-0.1-1.82V44.5l2.71,0.41v13.68c0,1.13,0,2.3,0.26,3.41
				H255.36z M254.83,52.59c-0.34-0.58-0.96-0.79-1.58-0.79c-1.9,0-1.9,2.95-1.9,4.27c0,1.27,0.02,3.84,1.82,3.84
				c0.65,0,1.39-0.29,1.66-0.94V52.59z"/>
			<path class="st0" d="M269.85,62.28c-1.97,0-3.62-0.55-5.04-1.54l1.25-2.26c1.1,0.86,2.3,1.37,3.77,1.37
				c1.58,0,2.71-0.79,2.71-2.28c0-1.06-0.6-1.66-1.58-2.14l-2.71-1.3c-1.44-0.7-2.78-1.85-2.78-4.2c0-2.83,2.14-4.87,5.14-4.87
				c1.8,0,3.43,0.58,4.75,1.54l-1.32,2.06c-1.15-0.79-2.06-1.22-3.22-1.22c-1.34,0-2.28,0.72-2.28,1.92c0,0.96,0.43,1.56,1.25,1.94
				l3.14,1.51c1.58,0.77,2.74,2.09,2.74,4.3C275.66,60.46,273.04,62.28,269.85,62.28z"/>
			<path class="st0" d="M281.99,62.28c-1.54,0-2.71-0.58-3.5-1.75c-0.74-1.1-1.13-2.57-1.13-4.46c0-2.52,0.67-4.2,1.73-5.28
				c0.84-0.84,1.87-1.3,3.1-1.3c1.34,0,2.21,0.48,3.1,1.34l-1.3,1.75c-0.53-0.55-1.08-0.86-1.75-0.86c-0.65,0-1.18,0.34-1.51,1.18
				c-0.34,0.86-0.41,1.75-0.41,3.19c0,2.47,0.55,3.98,1.92,3.98c0.82,0,1.51-0.38,2.06-1.1l1.27,1.7
				C284.49,61.9,283.31,62.28,281.99,62.28z"/>
			<path class="st0" d="M288.58,48.19c-0.98,0-1.78-0.79-1.78-1.78s0.82-1.78,1.82-1.78c0.98,0,1.78,0.79,1.78,1.78
				S289.58,48.19,288.58,48.19z M287.26,61.99V49.9l2.76-0.31v12.41H287.26z"/>
			<path class="st0" d="M295.04,56.57v0.24c0,0.79,0.07,1.51,0.41,2.14c0.41,0.74,1.1,1.15,1.94,1.15c0.98,0,1.82-0.43,2.66-1.2
				l1.08,1.75c-1.2,1.13-2.5,1.63-3.98,1.63c-3.19,0-5.02-2.38-5.02-6.41c0-2.09,0.41-3.62,1.3-4.78c0.84-1.08,1.99-1.61,3.38-1.61
				c1.32,0,2.38,0.46,3.12,1.3c0.98,1.1,1.37,2.59,1.37,5.26v0.53H295.04z M298.23,52.37c-0.26-0.55-0.7-0.89-1.39-0.89
				c-1.22,0-1.75,0.98-1.8,3.14h3.5C298.54,53.67,298.45,52.85,298.23,52.37z"/>
			<path class="st0" d="M309.25,61.99v-8.21c0-0.94-0.1-1.32-0.31-1.58c-0.19-0.24-0.53-0.31-0.89-0.31c-0.53,0-1.32,0.38-1.97,1.08
				v9.02h-2.71v-8.95c0-1.46-0.22-2.28-0.36-2.95l2.54-0.58c0.07,0.22,0.31,0.82,0.34,1.44c0.7-0.74,1.97-1.37,3.22-1.37
				c0.96,0,1.73,0.34,2.21,0.86c0.55,0.6,0.65,1.42,0.65,2.23v9.31H309.25z"/>
			<path class="st0" d="M318.81,62.28c-1.54,0-2.71-0.58-3.5-1.75c-0.74-1.1-1.13-2.57-1.13-4.46c0-2.52,0.67-4.2,1.73-5.28
				c0.84-0.84,1.87-1.3,3.1-1.3c1.34,0,2.21,0.48,3.1,1.34l-1.3,1.75c-0.53-0.55-1.08-0.86-1.75-0.86c-0.65,0-1.18,0.34-1.51,1.18
				c-0.34,0.86-0.41,1.75-0.41,3.19c0,2.47,0.55,3.98,1.92,3.98c0.82,0,1.51-0.38,2.06-1.1l1.27,1.7
				C321.31,61.9,320.13,62.28,318.81,62.28z"/>
			<path class="st0" d="M326.08,56.57v0.24c0,0.79,0.07,1.51,0.41,2.14c0.41,0.74,1.1,1.15,1.94,1.15c0.98,0,1.82-0.43,2.66-1.2
				l1.08,1.75c-1.2,1.13-2.5,1.63-3.98,1.63c-3.19,0-5.02-2.38-5.02-6.41c0-2.09,0.41-3.62,1.3-4.78c0.84-1.08,1.99-1.61,3.38-1.61
				c1.32,0,2.38,0.46,3.12,1.3c0.98,1.1,1.37,2.59,1.37,5.26v0.53H326.08z M329.27,52.37c-0.26-0.55-0.7-0.89-1.39-0.89
				c-1.22,0-1.75,0.98-1.8,3.14h3.5C329.58,53.67,329.48,52.85,329.27,52.37z"/>
			<path class="st0" d="M337.79,62.33c-1.39,0-2.88-0.5-4.18-1.37l0.96-2.11c0.94,0.7,2.23,1.3,3.31,1.3c0.94,0,1.58-0.6,1.58-1.44
				c0-0.98-0.89-1.3-1.9-1.68l-0.89-0.34c-1.37-0.53-2.59-1.49-2.59-3.29c0-2.38,1.61-3.96,4.01-3.96c1.46,0,2.57,0.36,3.62,1.01
				l-0.86,1.99c-0.86-0.53-1.66-0.86-2.52-0.86c-0.84,0-1.39,0.53-1.39,1.2c0,0.96,0.5,1.3,1.63,1.7l0.98,0.36
				c1.3,0.48,2.62,1.46,2.62,3.36C342.18,60.72,340.4,62.33,337.79,62.33z"/>
		</g>
	</g>
	<line class="st1" x1="84.49" y1="16.92" x2="84.49" y2="73.92"/>
	<g>
		<path class="st0" d="M100.73,38.31c-0.38-0.64-0.53-0.91-0.91-1.6c-0.97-1.75-1.26-2.23-1.61-2.38c-0.1-0.04-0.18-0.07-0.31-0.08
			v4.06h-1.92v-9.73h3.63c1.72,0,2.86,1.15,2.86,2.86c0,1.46-0.97,2.66-2.17,2.69c0.2,0.15,0.28,0.24,0.41,0.41
			c0.5,0.63,1.99,3.17,2.34,3.78H100.73z M99.71,30.28c-0.22-0.08-0.63-0.14-1.11-0.14h-0.7v2.63h0.66c0.84,0,1.21-0.08,1.47-0.32
			c0.24-0.22,0.38-0.57,0.38-0.98C100.41,30.87,100.17,30.45,99.71,30.28z"/>
		<path class="st0" d="M110.98,36.66c-0.25,0.77-1.2,1.83-3.31,1.83c-1.48,0-2.58-0.45-3.12-1.3c-0.32-0.5-0.42-0.9-0.42-1.83v-6.78
			h2v6.4c0,0.6,0.06,0.95,0.17,1.16c0.22,0.43,0.69,0.67,1.33,0.67c0.85,0,1.4-0.42,1.48-1.13c0.03-0.21,0.03-0.35,0.03-0.87v-6.23
			h1.99v6.56C111.13,36.06,111.12,36.24,110.98,36.66z"/>
		<path class="st0" d="M119.06,30.2h-2.33v8.11h-1.99V30.2h-2.38v-1.62h7.02L119.06,30.2z"/>
		<path class="st0" d="M124.01,38.42c-1.46,0-2.54-0.48-3.32-1.49c-0.71-0.91-1.04-1.95-1.04-3.4c0-2.06,0.67-3.52,2.03-4.43
			c0.71-0.48,1.44-0.69,2.37-0.69c1.18,0,2.24,0.38,3.1,1.12l-1.04,1.22c-0.63-0.52-1.29-0.76-2.03-0.76c-0.57,0-1.06,0.17-1.4,0.49
			c-0.66,0.63-0.83,1.68-0.83,3.14c0,1.39,0.24,2.28,0.73,2.77c0.36,0.35,0.9,0.55,1.53,0.55c0.43,0,0.78-0.07,1.11-0.24V34.5h-1.49
			l-0.25-1.6h3.77v4.65C126.25,38.14,125.16,38.42,124.01,38.42z"/>
		<path class="st0" d="M128.92,38.31v-9.73h5.55l-0.25,1.6h-3.31v2.26h2.76v1.6h-2.76v2.61h3.68v1.68H128.92z"/>
		<path class="st0" d="M140.74,38.31c-0.38-0.64-0.53-0.91-0.91-1.6c-0.97-1.75-1.26-2.23-1.61-2.38c-0.1-0.04-0.18-0.07-0.31-0.08
			v4.06h-1.92v-9.73h3.63c1.72,0,2.86,1.15,2.86,2.86c0,1.46-0.97,2.66-2.17,2.69c0.2,0.15,0.28,0.24,0.41,0.41
			c0.5,0.63,1.99,3.17,2.34,3.78H140.74z M139.72,30.28c-0.22-0.08-0.63-0.14-1.11-0.14h-0.7v2.63h0.66c0.84,0,1.21-0.08,1.47-0.32
			c0.24-0.22,0.38-0.57,0.38-0.98C140.42,30.87,140.18,30.45,139.72,30.28z"/>
		<path class="st0" d="M147.07,38.52c-1.11,0-2.34-0.32-3.32-0.88l0.73-1.53c0.91,0.48,1.69,0.78,2.68,0.78
			c1.12,0,1.71-0.46,1.71-1.33c0-0.63-0.41-1.02-1.27-1.26l-1.08-0.29c-0.97-0.27-1.57-0.64-1.92-1.23
			c-0.27-0.43-0.41-0.94-0.41-1.48c0-1.78,1.43-3.01,3.49-3.01c1.19,0,2.4,0.36,3.25,0.98l-0.92,1.4c-0.88-0.53-1.54-0.74-2.27-0.74
			c-0.8,0-1.36,0.46-1.36,1.12c0,0.5,0.27,0.76,1.08,0.98l1.18,0.32c1.6,0.43,2.46,1.46,2.46,2.9
			C151.09,37.22,149.49,38.52,147.07,38.52z"/>
		<path class="st0" d="M152.21,34.18v-1.44h6.82v1.44H152.21z"/>
		<path class="st0" d="M165.43,38.31l-1.67-3.73c-0.55-1.22-1.13-2.59-1.32-3.19c0.07,0.8,0.08,1.95,0.1,2.76l0.06,4.16h-1.89v-9.73
			h2.17l1.86,3.89c0.49,1.04,0.87,2.06,1.06,2.76c-0.07-0.76-0.14-2-0.15-2.67l-0.04-3.98h1.86v9.73H165.43z"/>
		<path class="st0" d="M169.09,38.31v-9.73h5.55l-0.25,1.6h-3.31v2.26h2.76v1.6h-2.76v2.61h3.68v1.68H169.09z"/>
		<path class="st0" d="M185.04,38.39h-2.14l-0.87-3.96c-0.27-1.19-0.43-2.37-0.46-2.75c-0.04,0.27-0.21,1.47-0.46,2.72l-0.81,3.99
			h-2.23l-2.33-9.82h2.07l0.84,3.84c0.36,1.69,0.49,3,0.52,3.19c0.04-0.41,0.21-1.78,0.5-3.1l0.87-3.94h2.14l0.9,4.36
			c0.18,0.87,0.39,2.41,0.42,2.56c0.03-0.34,0.32-2.28,0.53-3.22l0.8-3.7h2.06L185.04,38.39z"/>
		<path class="st0" d="M195.41,38.28c-0.31,0.01-0.71,0.03-1.25,0.03h-3.07v-9.73h3.29c1.19,0,1.81,0.18,2.39,0.7
			c0.55,0.48,0.8,1.04,0.8,1.74c0,0.66-0.22,1.22-0.66,1.63c-0.28,0.27-0.45,0.36-0.9,0.5c1.2,0.35,1.93,1.18,1.93,2.45
			C197.96,36.94,197.12,38.2,195.41,38.28z M194.98,30.37c-0.17-0.07-0.38-0.13-0.81-0.13h-1.12v2.23h1.15
			c0.46,0,0.67-0.04,0.84-0.13c0.27-0.14,0.5-0.6,0.5-1C195.54,30.94,195.33,30.51,194.98,30.37z M195.03,34.16
			c-0.24-0.07-0.39-0.08-0.76-0.08h-1.22v2.63h1.27c0.41,0,0.7-0.06,0.91-0.22c0.29-0.22,0.5-0.67,0.5-1.13
			C195.75,34.79,195.47,34.29,195.03,34.16z"/>
		<path class="st0" d="M203.97,38.31c-0.38-0.64-0.53-0.91-0.91-1.6c-0.97-1.75-1.26-2.23-1.61-2.38c-0.1-0.04-0.18-0.07-0.31-0.08
			v4.06h-1.92v-9.73h3.63c1.72,0,2.86,1.15,2.86,2.86c0,1.46-0.97,2.66-2.17,2.69c0.2,0.15,0.28,0.24,0.41,0.41
			c0.5,0.63,1.99,3.17,2.34,3.78H203.97z M202.95,30.28c-0.22-0.08-0.63-0.14-1.11-0.14h-0.7v2.63h0.66c0.84,0,1.21-0.08,1.47-0.32
			c0.24-0.22,0.38-0.57,0.38-0.98C203.65,30.87,203.41,30.45,202.95,30.28z"/>
		<path class="st0" d="M213.94,36.66c-0.25,0.77-1.2,1.83-3.31,1.83c-1.48,0-2.58-0.45-3.12-1.3c-0.32-0.5-0.42-0.9-0.42-1.83v-6.78
			h2v6.4c0,0.6,0.06,0.95,0.17,1.16c0.22,0.43,0.69,0.67,1.33,0.67c0.85,0,1.4-0.42,1.48-1.13c0.03-0.21,0.03-0.35,0.03-0.87v-6.23
			h1.99v6.56C214.09,36.06,214.08,36.24,213.94,36.66z"/>
		<path class="st0" d="M220.46,38.31l-1.67-3.73c-0.55-1.22-1.13-2.59-1.32-3.19c0.07,0.8,0.08,1.95,0.1,2.76l0.06,4.16h-1.89v-9.73
			h2.17l1.86,3.89c0.49,1.04,0.87,2.06,1.06,2.76c-0.07-0.76-0.14-2-0.15-2.67l-0.04-3.98h1.86v9.73H220.46z"/>
		<path class="st0" d="M227.36,38.52c-1.11,0-2.34-0.32-3.32-0.88l0.73-1.53c0.91,0.48,1.69,0.78,2.68,0.78
			c1.12,0,1.71-0.46,1.71-1.33c0-0.63-0.41-1.02-1.27-1.26l-1.08-0.29c-0.97-0.27-1.57-0.64-1.92-1.23
			c-0.27-0.43-0.41-0.94-0.41-1.48c0-1.78,1.43-3.01,3.49-3.01c1.19,0,2.4,0.36,3.25,0.98l-0.92,1.4c-0.88-0.53-1.54-0.74-2.27-0.74
			c-0.8,0-1.36,0.46-1.36,1.12c0,0.5,0.27,0.76,1.08,0.98l1.18,0.32c1.6,0.43,2.46,1.46,2.46,2.9
			C231.38,37.22,229.78,38.52,227.36,38.52z"/>
		<path class="st0" d="M241.66,38.39h-2.14l-0.87-3.96c-0.27-1.19-0.43-2.37-0.46-2.75c-0.04,0.27-0.21,1.47-0.46,2.72l-0.81,3.99
			h-2.23l-2.33-9.82h2.07l0.84,3.84c0.36,1.69,0.49,3,0.52,3.19c0.04-0.41,0.21-1.78,0.5-3.1l0.87-3.94h2.14l0.9,4.36
			c0.18,0.87,0.39,2.41,0.42,2.56c0.03-0.34,0.32-2.28,0.53-3.22l0.8-3.7h2.06L241.66,38.39z"/>
		<path class="st0" d="M245.13,38.31v-9.73h2.04v9.73H245.13z"/>
		<path class="st0" d="M252.93,38.48c-1.34,0-2.38-0.43-3.18-1.34c-0.78-0.88-1.18-2.06-1.18-3.49c0-1.22,0.21-2.19,0.66-3.03
			c0.76-1.41,2.16-2.25,3.73-2.25c0.97,0,1.93,0.31,2.47,0.77l-0.88,1.33c-0.49-0.36-1.01-0.55-1.55-0.55
			c-0.66,0-1.3,0.32-1.65,0.84c-0.38,0.56-0.55,1.37-0.55,2.51c0,1.33,0.11,2.07,0.41,2.6c0.39,0.71,1.04,1.09,1.88,1.09
			c0.57,0,1.09-0.17,1.67-0.63l0.9,1.23C254.86,38.2,254.03,38.48,252.93,38.48z"/>
		<path class="st0" d="M261.87,38.31l-2.96-5.08v5.08h-2v-9.73h2v4.44l2.77-4.44h2.41l-3.11,4.51l3.46,5.22H261.87z"/>
	</g>
</g>
<g id="guide">
</g>
</svg>
