<?xml version="1.0" encoding="UTF-8"?>
<!-- Generator: Adobe Illustrator 28.0.0, SVG Export Plug-In . SVG Version: 6.00 Build 0)  -->
<svg version="1.1" id="Layer_1" xmlns="http://www.w3.org/2000/svg" xmlns:xlink="http://www.w3.org/1999/xlink" x="0px" y="0px" viewBox="0 0 500 100" style="enable-background:new 0 0 500 100;" xml:space="preserve">
<style type="text/css">
	.st0{fill:#CC0033;}
	.st1{fill:none;stroke:#000000;stroke-width:2.2118;stroke-miterlimit:10;}
</style>
<g>
	<path class="st0" d="M72.14,52.15l1.34-0.51c11.12-4.19,16.53-10.52,16.53-19.35c0-6.12-2.45-11.1-7.48-15.25   c-5.33-4.32-12.66-6.51-21.77-6.51c0,0-52.09,0-54.29,0v11.54c0.34,0,2.76,0,6.32,0v56.61H6.47V90.2h37.02V78.68h-6.53V54.29h13.42   l15.35,24.39H57.1V90.2h40.09V78.68H89.6L72.14,52.15z M61.57,39.97l-0.03,0.02c-2.86,2.24-7.07,3.37-12.53,3.37H36.96V22.07   c8.21,0,14.85,0,14.85,0c4.64,0,8.25,1.3,10.71,3.84c1.8,1.78,2.71,4.02,2.71,6.67C65.23,35.44,63.99,37.93,61.57,39.97"/>
	<path d="M51.81,22.07c0,0-6.65,0-14.85,0v21.29H49c5.46,0,9.68-1.13,12.53-3.37l0.03-0.02c2.43-2.04,3.66-4.53,3.66-7.38   c0-2.65-0.91-4.89-2.71-6.67C60.06,23.37,56.45,22.07,51.81,22.07 M60.2,38.26l-0.01,0.01c-2.46,1.93-6.22,2.9-11.18,2.9h-9.85   V24.26l12.66,0c4.02,0,7.09,1.07,9.13,3.18l0.03,0.03c1.38,1.37,2.06,3.04,2.06,5.12C63.04,34.78,62.11,36.64,60.2,38.26"/>
	<path d="M90.78,76.49L75.47,53.21C86.57,48.7,92.2,41.67,92.2,32.29c0-6.81-2.71-12.35-8.29-16.95c-5.73-4.65-13.52-7-23.15-7   l-56.48,0v15.9c0,0,3.97,0.01,6.32,0.01v52.23H4.28v15.9h41.4v-15.9h-6.53V56.48h10.02l12.6,20.01h-6.86v15.9h44.46v-15.9H90.78z    M97.18,90.2H57.1V78.68h8.64L50.38,54.29H36.96v24.39h6.53V90.2H6.47V78.68h6.32v-56.6c-3.56,0-5.98,0-6.32,0V10.53   c2.2,0,54.29,0,54.29,0c9.12,0,16.44,2.19,21.77,6.51c5.03,4.14,7.48,9.13,7.48,15.25c0,8.83-5.41,15.16-16.53,19.35l-1.34,0.51   L89.6,78.68h7.58V90.2z"/>
</g>
<g>
	<g>
		<path d="M139.39,75.3c-2.9,0-5.34-0.81-7.43-2.27l1.84-3.33c1.63,1.27,3.4,2.02,5.56,2.02c2.34,0,4-1.17,4-3.36    c0-1.56-0.88-2.44-2.34-3.15l-4-1.91c-2.12-1.03-4.11-2.72-4.11-6.19c0-4.18,3.15-7.18,7.57-7.18c2.65,0,5.06,0.85,7.01,2.27    l-1.95,3.04c-1.7-1.17-3.04-1.8-4.74-1.8c-1.98,0-3.36,1.06-3.36,2.83c0,1.42,0.64,2.3,1.84,2.87l4.64,2.23    c2.34,1.13,4.03,3.08,4.03,6.34C147.96,72.61,144.1,75.3,139.39,75.3z"/>
		<path d="M157.29,75.3c-2.27,0-4-0.85-5.17-2.58c-1.1-1.63-1.66-3.79-1.66-6.58c0-3.72,0.99-6.19,2.55-7.79    c1.24-1.24,2.76-1.91,4.57-1.91c1.98,0,3.26,0.71,4.57,1.98L160.23,61c-0.78-0.82-1.59-1.27-2.58-1.27c-0.96,0-1.73,0.5-2.23,1.73    c-0.5,1.27-0.6,2.58-0.6,4.71c0,3.65,0.81,5.88,2.83,5.88c1.2,0,2.23-0.57,3.04-1.63l1.88,2.51    C160.98,74.73,159.24,75.3,157.29,75.3z"/>
		<path d="M173.87,74.87V62.84c0-1.34-0.14-2.62-1.81-2.62c-1.2,0-2.3,0.85-3.01,1.77v12.88h-4.03V53.6c0-1.38-0.04-1.91-0.32-3.89    l4-0.6c0.25,1.45,0.35,2.94,0.35,4.43v3.04c0,0.6-0.04,1.24-0.07,1.84c1.13-1.24,2.87-1.84,4.53-1.84c2.97,0,4.32,1.91,4.32,4.71    v13.59H173.87z"/>
		<path d="M187.93,75.33c-5.59,0-7.01-5.2-7.01-9.63c0-4.39,1.84-9.27,7.04-9.27c4.14,0,7.11,3.22,7.11,9.34    C195.08,70.34,193.35,75.33,187.93,75.33z M187.93,59.62c-2.58,0-2.69,3.93-2.69,6.37c0,2.05,0.07,6.16,2.8,6.16    c2.65,0,2.65-4.5,2.65-6.37C190.69,63.26,190.59,59.62,187.93,59.62z"/>
		<path d="M204.23,75.33c-5.59,0-7.01-5.2-7.01-9.63c0-4.39,1.84-9.27,7.04-9.27c4.14,0,7.11,3.22,7.11,9.34    C211.38,70.34,209.65,75.33,204.23,75.33z M204.23,59.62c-2.58,0-2.69,3.93-2.69,6.37c0,2.05,0.07,6.16,2.8,6.16    c2.65,0,2.65-4.5,2.65-6.37C206.99,63.26,206.89,59.62,204.23,59.62z"/>
		<path d="M218.08,75.3c-1.34,0-2.23-0.39-2.8-1.03c-0.74-0.85-0.88-2.16-0.88-3.89V53.71c0-1.95-0.21-3.15-0.32-3.93l3.96-0.6    c0.11,0.67,0.42,2.19,0.42,4.42v15.43c0,2.37,0.11,3.04,1.06,3.04c0.14,0,0.39-0.07,0.5-0.11l0.71,2.83    C220.06,75.12,219.18,75.3,218.08,75.3z"/>
		<path d="M236.31,75.33c-5.59,0-7.01-5.2-7.01-9.63c0-4.39,1.84-9.27,7.04-9.27c4.14,0,7.11,3.22,7.11,9.34    C243.46,70.34,241.72,75.33,236.31,75.33z M236.31,59.62c-2.58,0-2.69,3.93-2.69,6.37c0,2.05,0.07,6.16,2.8,6.16    c2.65,0,2.65-4.5,2.65-6.37C239.07,63.26,238.96,59.62,236.31,59.62z"/>
		<path d="M254.23,52.5c-0.46-0.32-1.2-0.53-1.91-0.53c-0.99,0-1.59,0.82-1.59,2.19v2.76h3.75l-0.74,3.04h-3.01v14.9h-4.11v-14.9    h-1.38v-3.04h1.38c-0.04-0.81-0.07-1.24-0.07-2.37c0-2.69,1.03-4.11,1.98-4.81c0.96-0.67,2.05-0.88,3.08-0.88    c1.49,0,2.69,0.28,3.75,0.96L254.23,52.5z"/>
		<path d="M275.01,74.87l-1.52-6.09h-6.51l-1.59,6.09h-4.32L268,50.38h4.88l6.65,24.49H275.01z M271.11,58.77    c-0.32-1.27-0.81-4.25-0.81-4.39c-0.04,0.14-0.57,3.08-0.88,4.39l-1.56,6.62h4.81L271.11,58.77z"/>
		<path d="M289.55,60.68c-0.35-0.21-0.71-0.35-1.17-0.35c-1.38,0-2.55,1.1-2.55,2.48v12.07h-4.03V61.71c0-2.19-0.32-3.4-0.53-4.42    l3.79-0.81c0.11,0.35,0.42,1.2,0.42,2.23v0.14c0.6-1.59,2.12-2.48,3.68-2.48c0.6,0,1.17,0.21,1.56,0.39L289.55,60.68z"/>
		<path d="M297.99,75.4c-0.88,0-1.63-0.18-2.3-0.42c-1.27-0.5-2.02-1.73-2.02-3.82V59.97h-1.63v-3.04h1.63    c0-1.77,0.18-3.93,0.28-4.56l3.93-0.67c-0.11,1.06-0.18,3.26-0.18,5.24h3.36l-0.67,3.04h-2.73v9.49c0,2.27,0.39,2.9,1.84,2.9    c0.57,0,0.96-0.14,1.34-0.35l0.57,2.51C300.29,75.16,299.2,75.4,297.99,75.4z"/>
		<path d="M309.27,75.37c-2.05,0-4.25-0.74-6.16-2.02l1.42-3.11c1.38,1.03,3.29,1.91,4.88,1.91c1.38,0,2.34-0.89,2.34-2.12    c0-1.45-1.31-1.91-2.8-2.48l-1.31-0.5c-2.02-0.78-3.82-2.19-3.82-4.85c0-3.5,2.37-5.84,5.91-5.84c2.16,0,3.79,0.53,5.34,1.49    l-1.27,2.94c-1.27-0.78-2.44-1.27-3.72-1.27c-1.24,0-2.05,0.78-2.05,1.77c0,1.42,0.74,1.91,2.41,2.51l1.45,0.53    c1.91,0.71,3.86,2.16,3.86,4.96C315.75,73,313.13,75.37,309.27,75.37z"/>
		<path d="M336.88,75.58c-0.88-0.32-1.77-1.27-2.05-2.16c-1.1,1.17-2.37,1.91-4.21,1.91c-3.86,0-5.2-2.66-5.2-5.52    c0-3.72,2.83-6.09,7.57-6.09c0.28,0,0.57,0,0.96,0.04v-1.31c0-1.06-0.04-1.77-0.39-2.19c-0.32-0.42-0.78-0.6-1.49-0.6    c-1.77,0-3.47,0.85-4.67,1.95l-1.63-2.76c2.02-1.45,4.39-2.41,6.83-2.41c2.62,0,4.46,1.1,5.06,3.08c0.25,0.74,0.32,1.59,0.32,2.69    c0,2.09-0.11,6.83-0.11,7.26c0,1.77,0.21,2.72,1.24,3.43L336.88,75.58z M333.9,66.66c-0.32-0.03-0.46-0.03-0.57-0.03    c-2.83,0-3.86,1.2-3.86,3.01c0,1.52,0.67,2.48,1.98,2.48c0.99,0,1.98-0.67,2.41-1.59L333.9,66.66z"/>
		<path d="M350.79,74.87v-12.1c0-1.38-0.14-1.95-0.46-2.34c-0.28-0.35-0.78-0.46-1.31-0.46c-0.78,0-1.95,0.57-2.9,1.59v13.31h-4    v-13.2c0-2.16-0.32-3.36-0.53-4.35l3.75-0.85c0.11,0.32,0.46,1.2,0.5,2.12c1.03-1.1,2.9-2.02,4.74-2.02c1.42,0,2.55,0.5,3.26,1.27    c0.82,0.89,0.96,2.09,0.96,3.29v13.73H350.79z"/>
		<path d="M368.33,74.87c-0.21-0.46-0.28-0.95-0.32-1.45c-0.92,1.2-2.05,1.8-3.61,1.8c-5.03,0-6.33-4.96-6.33-9.1    c0-4,1.66-9.59,6.55-9.59c1.1,0,2.34,0.5,3.08,1.31c-0.07-0.88-0.14-1.8-0.14-2.69v-6.09l4,0.6v20.17c0,1.66,0,3.4,0.39,5.03    H368.33z M367.55,61c-0.5-0.85-1.42-1.17-2.34-1.17c-2.8,0-2.8,4.35-2.8,6.3c0,1.88,0.03,5.66,2.69,5.66    c0.95,0,2.05-0.42,2.44-1.38V61z"/>
		<path d="M389.7,75.3c-2.9,0-5.34-0.81-7.43-2.27l1.84-3.33c1.63,1.27,3.4,2.02,5.56,2.02c2.34,0,4-1.17,4-3.36    c0-1.56-0.89-2.44-2.34-3.15l-4-1.91c-2.12-1.03-4.11-2.72-4.11-6.19c0-4.18,3.15-7.18,7.57-7.18c2.65,0,5.06,0.85,7.01,2.27    l-1.95,3.04c-1.7-1.17-3.04-1.8-4.74-1.8c-1.98,0-3.36,1.06-3.36,2.83c0,1.42,0.64,2.3,1.84,2.87l4.64,2.23    c2.34,1.13,4.03,3.08,4.03,6.34C398.27,72.61,394.41,75.3,389.7,75.3z"/>
		<path d="M407.6,75.3c-2.27,0-4-0.85-5.17-2.58c-1.1-1.63-1.66-3.79-1.66-6.58c0-3.72,0.99-6.19,2.55-7.79    c1.24-1.24,2.76-1.91,4.57-1.91c1.98,0,3.26,0.71,4.56,1.98L410.54,61c-0.78-0.82-1.59-1.27-2.58-1.27c-0.96,0-1.73,0.5-2.23,1.73    c-0.5,1.27-0.6,2.58-0.6,4.71c0,3.65,0.81,5.88,2.83,5.88c1.2,0,2.23-0.57,3.04-1.63l1.87,2.51    C411.28,74.73,409.55,75.3,407.6,75.3z"/>
		<path d="M417.31,54.52c-1.45,0-2.62-1.17-2.62-2.62c0-1.45,1.2-2.62,2.69-2.62c1.45,0,2.62,1.17,2.62,2.62    C420,53.35,418.8,54.52,417.31,54.52z M415.36,74.87V57.03l4.07-0.46v18.3H415.36z"/>
		<path d="M426.84,66.87v0.35c0,1.17,0.11,2.23,0.6,3.15c0.6,1.1,1.63,1.7,2.87,1.7c1.45,0,2.69-0.64,3.93-1.77l1.59,2.58    c-1.77,1.66-3.68,2.41-5.88,2.41c-4.71,0-7.4-3.5-7.4-9.45c0-3.08,0.6-5.34,1.91-7.04c1.24-1.59,2.94-2.37,4.99-2.37    c1.95,0,3.5,0.67,4.6,1.91c1.45,1.63,2.02,3.82,2.02,7.75v0.78H426.84z M431.55,60.68c-0.39-0.81-1.03-1.31-2.05-1.31    c-1.81,0-2.58,1.45-2.65,4.64h5.17C432.01,62.59,431.87,61.39,431.55,60.68z"/>
		<path d="M447.79,74.87v-12.1c0-1.38-0.14-1.95-0.46-2.34c-0.28-0.35-0.78-0.46-1.31-0.46c-0.78,0-1.95,0.57-2.9,1.59v13.31h-4    v-13.2c0-2.16-0.32-3.36-0.53-4.35l3.75-0.85c0.11,0.32,0.46,1.2,0.5,2.12c1.03-1.1,2.9-2.02,4.74-2.02c1.42,0,2.55,0.5,3.26,1.27    c0.82,0.89,0.96,2.09,0.96,3.29v13.73H447.79z"/>
		<path d="M461.89,75.3c-2.27,0-4-0.85-5.17-2.58c-1.1-1.63-1.66-3.79-1.66-6.58c0-3.72,0.99-6.19,2.55-7.79    c1.24-1.24,2.76-1.91,4.57-1.91c1.98,0,3.26,0.71,4.56,1.98L464.83,61c-0.78-0.82-1.59-1.27-2.58-1.27c-0.96,0-1.73,0.5-2.23,1.73    c-0.5,1.27-0.6,2.58-0.6,4.71c0,3.65,0.81,5.88,2.83,5.88c1.2,0,2.23-0.57,3.04-1.63l1.87,2.51    C465.57,74.73,463.84,75.3,461.89,75.3z"/>
		<path d="M472.61,66.87v0.35c0,1.17,0.11,2.23,0.6,3.15c0.6,1.1,1.63,1.7,2.87,1.7c1.45,0,2.69-0.64,3.93-1.77l1.59,2.58    c-1.77,1.66-3.68,2.41-5.88,2.41c-4.71,0-7.4-3.5-7.4-9.45c0-3.08,0.6-5.34,1.91-7.04c1.24-1.59,2.94-2.37,4.99-2.37    c1.95,0,3.5,0.67,4.6,1.91c1.45,1.63,2.02,3.82,2.02,7.75v0.78H472.61z M477.31,60.68c-0.39-0.81-1.03-1.31-2.05-1.31    c-1.81,0-2.58,1.45-2.65,4.64h5.17C477.77,62.59,477.63,61.39,477.31,60.68z"/>
		<path d="M489.88,75.37c-2.05,0-4.25-0.74-6.16-2.02l1.42-3.11c1.38,1.03,3.29,1.91,4.88,1.91c1.38,0,2.34-0.89,2.34-2.12    c0-1.45-1.31-1.91-2.8-2.48l-1.31-0.5c-2.02-0.78-3.82-2.19-3.82-4.85c0-3.5,2.37-5.84,5.91-5.84c2.16,0,3.79,0.53,5.34,1.49    l-1.27,2.94c-1.27-0.78-2.44-1.27-3.72-1.27c-1.24,0-2.05,0.78-2.05,1.77c0,1.42,0.74,1.91,2.41,2.51l1.45,0.53    c1.91,0.71,3.86,2.16,3.86,4.96C496.35,73,493.73,75.37,489.88,75.37z"/>
	</g>
</g>
<line class="st1" x1="116.38" y1="8.4" x2="116.38" y2="92.45"/>
<g>
	<path class="st0" d="M140.25,39.95c-0.56-0.95-0.78-1.34-1.34-2.35c-1.43-2.58-1.86-3.28-2.38-3.51c-0.14-0.06-0.27-0.1-0.45-0.12   v5.99h-2.83V25.59h5.35c2.54,0,4.21,1.69,4.21,4.21c0,2.15-1.43,3.92-3.2,3.97c0.29,0.23,0.41,0.35,0.6,0.6   c0.74,0.93,2.93,4.67,3.45,5.58H140.25z M138.75,28.11c-0.33-0.12-0.93-0.21-1.63-0.21h-1.03v3.88h0.97c1.24,0,1.78-0.12,2.17-0.48   c0.35-0.33,0.56-0.85,0.56-1.45C139.78,28.98,139.43,28.36,138.75,28.11z"/>
	<path class="st0" d="M155.37,37.51c-0.37,1.14-1.78,2.71-4.87,2.71c-2.19,0-3.8-0.66-4.61-1.92c-0.48-0.74-0.62-1.32-0.62-2.71v-10   h2.95v9.44c0,0.89,0.08,1.41,0.25,1.72c0.33,0.64,1.01,0.99,1.96,0.99c1.26,0,2.06-0.62,2.19-1.67c0.04-0.31,0.04-0.52,0.04-1.28   v-9.19h2.93v9.67C155.59,36.62,155.57,36.89,155.37,37.51z"/>
	<path class="st0" d="M167.28,27.99h-3.43v11.96h-2.93V27.99h-3.51v-2.4h10.35L167.28,27.99z"/>
	<path class="st0" d="M174.58,40.11c-2.15,0-3.74-0.7-4.89-2.19c-1.05-1.34-1.53-2.87-1.53-5.02c0-3.04,0.99-5.19,3-6.53   c1.05-0.7,2.13-1.01,3.49-1.01c1.74,0,3.3,0.56,4.56,1.65l-1.53,1.8c-0.93-0.76-1.9-1.12-3-1.12c-0.85,0-1.57,0.25-2.06,0.72   c-0.97,0.93-1.22,2.48-1.22,4.63c0,2.04,0.35,3.37,1.07,4.09c0.54,0.52,1.32,0.81,2.25,0.81c0.64,0,1.16-0.1,1.63-0.35v-3.26h-2.19   l-0.37-2.35h5.56v6.86C177.89,39.7,176.28,40.11,174.58,40.11z"/>
	<path class="st0" d="M181.83,39.95V25.59h8.18l-0.37,2.35h-4.87v3.33h4.07v2.35h-4.07v3.84h5.43v2.48H181.83z"/>
	<path class="st0" d="M199.25,39.95c-0.56-0.95-0.78-1.34-1.34-2.35c-1.43-2.58-1.86-3.28-2.38-3.51c-0.14-0.06-0.27-0.1-0.45-0.12   v5.99h-2.83V25.59h5.35c2.54,0,4.21,1.69,4.21,4.21c0,2.15-1.43,3.92-3.2,3.97c0.29,0.23,0.41,0.35,0.6,0.6   c0.74,0.93,2.93,4.67,3.45,5.58H199.25z M197.75,28.11c-0.33-0.12-0.93-0.21-1.63-0.21h-1.03v3.88h0.97c1.24,0,1.78-0.12,2.17-0.48   c0.35-0.33,0.56-0.85,0.56-1.45C198.78,28.98,198.43,28.36,197.75,28.11z"/>
	<path class="st0" d="M208.58,40.26c-1.63,0-3.45-0.48-4.89-1.3l1.07-2.25c1.34,0.7,2.5,1.16,3.95,1.16c1.65,0,2.52-0.68,2.52-1.96   c0-0.93-0.6-1.51-1.88-1.86l-1.59-0.43c-1.43-0.39-2.31-0.95-2.83-1.82c-0.39-0.64-0.6-1.38-0.6-2.19c0-2.62,2.11-4.44,5.14-4.44   c1.76,0,3.53,0.54,4.79,1.45l-1.36,2.06c-1.3-0.78-2.27-1.09-3.35-1.09c-1.18,0-2,0.68-2,1.65c0,0.74,0.39,1.11,1.59,1.45   l1.74,0.48c2.35,0.64,3.63,2.15,3.63,4.27C214.51,38.34,212.16,40.26,208.58,40.26z"/>
	<path class="st0" d="M216.16,33.86v-2.13h10.06v2.13H216.16z"/>
	<path class="st0" d="M235.65,39.95l-2.46-5.49c-0.81-1.8-1.67-3.82-1.94-4.71c0.1,1.18,0.12,2.87,0.15,4.07l0.08,6.13h-2.79V25.59   h3.2l2.75,5.74c0.72,1.53,1.28,3.03,1.57,4.07c-0.1-1.11-0.21-2.95-0.23-3.94l-0.06-5.87h2.75v14.35H235.65z"/>
	<path class="st0" d="M241.05,39.95V25.59h8.18l-0.37,2.35h-4.87v3.33h4.07v2.35h-4.07v3.84h5.43v2.48H241.05z"/>
	<path class="st0" d="M264.58,40.07h-3.16l-1.28-5.84c-0.39-1.75-0.64-3.49-0.68-4.05c-0.06,0.39-0.31,2.17-0.68,4.01l-1.2,5.89   h-3.28l-3.43-14.48h3.06l1.24,5.66c0.54,2.5,0.72,4.42,0.76,4.71c0.06-0.6,0.31-2.62,0.74-4.56l1.28-5.8h3.16l1.32,6.42   c0.27,1.28,0.58,3.55,0.62,3.78c0.04-0.5,0.47-3.37,0.78-4.75l1.18-5.45h3.04L264.58,40.07z"/>
	<path class="st0" d="M279.87,39.91c-0.46,0.02-1.05,0.04-1.84,0.04h-4.52V25.59h4.85c1.76,0,2.66,0.27,3.53,1.03   c0.81,0.7,1.18,1.53,1.18,2.56c0,0.97-0.33,1.8-0.97,2.4c-0.41,0.39-0.66,0.54-1.32,0.74c1.78,0.52,2.85,1.73,2.85,3.61   C283.63,37.92,282.39,39.78,279.87,39.91z M279.23,28.24c-0.25-0.1-0.56-0.19-1.2-0.19h-1.65v3.28h1.69c0.68,0,0.99-0.06,1.24-0.19   c0.39-0.21,0.74-0.89,0.74-1.47C280.05,29.08,279.75,28.44,279.23,28.24z M279.31,33.83c-0.35-0.1-0.58-0.12-1.11-0.12h-1.8v3.88   h1.88c0.6,0,1.03-0.08,1.34-0.33c0.43-0.33,0.74-0.99,0.74-1.67C280.36,34.76,279.95,34.02,279.31,33.83z"/>
	<path class="st0" d="M292.48,39.95c-0.56-0.95-0.78-1.34-1.34-2.35c-1.43-2.58-1.86-3.28-2.38-3.51c-0.14-0.06-0.27-0.1-0.45-0.12   v5.99h-2.83V25.59h5.35c2.54,0,4.21,1.69,4.21,4.21c0,2.15-1.43,3.92-3.2,3.97c0.29,0.23,0.41,0.35,0.6,0.6   c0.74,0.93,2.93,4.67,3.45,5.58H292.48z M290.97,28.11c-0.33-0.12-0.93-0.21-1.63-0.21h-1.03v3.88h0.97c1.24,0,1.78-0.12,2.17-0.48   c0.35-0.33,0.56-0.85,0.56-1.45C292.01,28.98,291.66,28.36,290.97,28.11z"/>
	<path class="st0" d="M307.18,37.51c-0.37,1.14-1.78,2.71-4.87,2.71c-2.19,0-3.8-0.66-4.61-1.92c-0.48-0.74-0.62-1.32-0.62-2.71v-10   h2.95v9.44c0,0.89,0.08,1.41,0.25,1.72c0.33,0.64,1.01,0.99,1.96,0.99c1.26,0,2.06-0.62,2.19-1.67c0.04-0.31,0.04-0.52,0.04-1.28   v-9.19h2.93v9.67C307.41,36.62,307.39,36.89,307.18,37.51z"/>
	<path class="st0" d="M316.8,39.95l-2.46-5.49c-0.81-1.8-1.67-3.82-1.94-4.71c0.1,1.18,0.12,2.87,0.15,4.07l0.08,6.13h-2.79V25.59   h3.2l2.75,5.74c0.72,1.53,1.28,3.03,1.57,4.07c-0.1-1.11-0.21-2.95-0.23-3.94l-0.06-5.87h2.75v14.35H316.8z"/>
	<path class="st0" d="M326.98,40.26c-1.63,0-3.45-0.48-4.89-1.3l1.07-2.25c1.34,0.7,2.5,1.16,3.95,1.16c1.65,0,2.52-0.68,2.52-1.96   c0-0.93-0.6-1.51-1.88-1.86l-1.59-0.43c-1.43-0.39-2.31-0.95-2.83-1.82c-0.39-0.64-0.6-1.38-0.6-2.19c0-2.62,2.11-4.44,5.14-4.44   c1.76,0,3.53,0.54,4.79,1.45l-1.36,2.06c-1.3-0.78-2.27-1.09-3.35-1.09c-1.18,0-2,0.68-2,1.65c0,0.74,0.39,1.11,1.59,1.45   l1.74,0.48c2.35,0.64,3.63,2.15,3.63,4.27C332.91,38.34,330.55,40.26,326.98,40.26z"/>
	<path class="st0" d="M348.06,40.07h-3.16l-1.28-5.84c-0.39-1.75-0.64-3.49-0.68-4.05c-0.06,0.39-0.31,2.17-0.68,4.01l-1.2,5.89   h-3.28l-3.43-14.48h3.06l1.24,5.66c0.54,2.5,0.72,4.42,0.76,4.71c0.06-0.6,0.31-2.62,0.74-4.56l1.28-5.8h3.16l1.32,6.42   c0.27,1.28,0.58,3.55,0.62,3.78c0.04-0.5,0.47-3.37,0.78-4.75l1.18-5.45h3.04L348.06,40.07z"/>
	<path class="st0" d="M353.17,39.95V25.59h3.02v14.35H353.17z"/>
	<path class="st0" d="M364.67,40.2c-1.98,0-3.51-0.64-4.69-1.98c-1.16-1.3-1.74-3.04-1.74-5.14c0-1.8,0.31-3.22,0.97-4.46   c1.11-2.09,3.18-3.32,5.49-3.32c1.43,0,2.85,0.46,3.64,1.14l-1.3,1.96c-0.72-0.54-1.49-0.81-2.29-0.81c-0.97,0-1.92,0.48-2.44,1.24   c-0.56,0.83-0.8,2.02-0.8,3.7c0,1.96,0.17,3.06,0.6,3.84c0.58,1.05,1.53,1.61,2.77,1.61c0.85,0,1.61-0.25,2.46-0.93l1.32,1.82   C367.52,39.78,366.31,40.2,364.67,40.2z"/>
	<path class="st0" d="M377.87,39.95l-4.36-7.5v7.5h-2.95V25.59h2.95v6.55l4.09-6.55h3.55l-4.58,6.65l5.1,7.7H377.87z"/>
</g>
</svg>