<?xml version="1.0" encoding="utf-8"?>
<!-- Generator: Adobe Illustrator 17.0.0, SVG Export Plug-In . SVG Version: 6.00 Build 0)  -->
<!DOCTYPE svg PUBLIC "-//W3C//DTD SVG 1.1//EN" "http://www.w3.org/Graphics/SVG/1.1/DTD/svg11.dtd">
<svg version="1.1" id="Layer_1" xmlns="http://www.w3.org/2000/svg" xmlns:xlink="http://www.w3.org/1999/xlink" x="0px" y="0px"
	 width="348.012px" height="347.976px" viewBox="0 0 348.012 347.976" style="enable-background:new 0 0 348.012 347.976;"
	 xml:space="preserve">
<style type="text/css">
	.st0{fill-rule:evenodd;clip-rule:evenodd;fill:#FFFFFF;stroke:#FFFFFF;stroke-width:0.036;stroke-miterlimit:10;}
	.st1{fill-rule:evenodd;clip-rule:evenodd;fill:#034694;stroke:#034694;stroke-width:0.036;stroke-miterlimit:10;}
	.st2{fill-rule:evenodd;clip-rule:evenodd;fill:#0098D7;stroke:#0098D7;stroke-width:0.036;stroke-miterlimit:10;}
</style>
<g>
	<path class="st0" d="M329.544,95.94c-5.544,7.236-7.596,9.648-16.056,20.916c-8.496,11.232-6.228,9.468-17.28,23.148
		c-11.088,13.644-14.184,18.936-27,31.464c-12.78,12.528-13.32,11.124-24.192,18.684c-10.908,7.488-10.98,7.164-19.368,11.412
		c-8.388,4.248-10.728,5.184-14.184,5.508c1.476,0.36,2.988,0.684,4.5,1.044c3.276,0.072,2.16-0.252,9-0.684
		c6.804-0.432,11.484-1.476,18.324-1.044c6.804,0.432,6.12,0.684,9,2.772c2.844,2.052,3.096,3.456,2.412,5.544
		c0,0.108,0,0.216,0,0.324c-9.36,0-14.292,0-28.008,3.456c-13.752,3.456-11.088,2.952-26.964,10.368
		c-15.948,7.452-21.708,13.5-36.648,19.404c-14.976,5.868-13.428,3.852-23.184,4.14c-9.792,0.252-10.404-1.224-15.912-3.132
		c-5.544-1.908-5.868-2.736-6.228-4.464c-0.216,0-0.432,0-0.684,0c6.228-1.764,9.828-2.7,19.368-5.904
		c9.504-3.204,9.252-2.664,18.648-6.912c9.432-4.248,13.176-5.868,19.044-10.044c-9.828-0.576-19.62-1.152-29.412-1.728
		c-15.552-2.34-16.056-1.908-32.508-8.28c-16.416-6.408-18.252-7.272-33.192-17.28c-14.94-10.044-16.056-12.708-26.604-22.824
		c-10.548-10.116-7.884-9.36-15.552-17.64c-7.704-8.316-7.2-9.432-15.228-15.552l0,0c-8.064-6.156-15.876-9.18-15.876-9.18
		c4.968-18.936,13.104-36.612,23.76-52.452l0,0l0.252,0.252v0c8.064,4.464,15.948,10.152,24.084,17.388
		c8.172,7.272,16.308,16.02,24.444,25.704c8.136,9.72,17.46,23.544,23.976,31.896c6.48,8.316,7.596,10.692,14.688,17.64
		c7.128,6.984,17.316,17.46,27.612,23.76c10.26,6.264,23.184,12.528,33.552,13.68c10.332,1.08,18.864-1.512,27.972-7.128
		c9.108-5.652,18.756-16.164,26.244-26.316c7.416-10.188,11.7-21.924,18.108-34.128c6.372-12.276,13.5-28.26,19.872-38.7
		c6.408-10.404,11.34-17.46,18.144-23.292c4.392-3.708,10.188-6.408,15.048-8.46c2.772-1.152,4.428-2.124,7.416-2.772
		C318.096,75.744,324.324,85.536,329.544,95.94L329.544,95.94z"/>
	<path class="st1" d="M29.52,77.004c1.368-2.052,2.808-4.104,4.284-6.084C65.484,27.9,116.496,0,173.988,0
		c53.82,0,101.952,24.408,133.848,62.784c1.044,1.224,2.016,2.484,3.024,3.708c0.756,0-3.636,1.044-7.38,2.916
		c-3.78,1.908-8.928,3.024-15.012,8.352c-6.048,5.364-11.736,12.888-18.144,23.292c-6.372,10.44-13.5,26.424-19.872,38.7
		c-6.408,12.204-10.692,23.94-18.108,34.128c-7.488,10.152-17.136,20.664-26.244,26.316c-9.108,5.616-17.64,8.208-27.972,7.128
		c-10.368-1.152-23.292-7.416-33.552-13.68c-10.296-6.3-20.484-16.776-27.612-23.76c-7.092-6.948-8.208-9.324-14.688-17.64
		c-6.516-8.352-15.84-22.176-23.976-31.896c-8.136-9.684-16.272-18.432-24.444-25.704c-8.136-7.236-16.02-12.924-24.084-17.388l0,0
		L29.52,77.004L29.52,77.004z"/>
	<path class="st2" d="M329.544,95.94c11.808,23.472,18.468,49.968,18.468,78.048c0,96.084-77.904,173.988-174.024,173.988
		C77.904,347.976,0,270.072,0,173.988c0-15.408,1.98-30.312,5.76-44.532c0,0,7.812,3.024,15.876,9.18
		c8.028,6.12,7.524,7.236,15.228,15.552c7.668,8.28,5.004,7.524,15.552,17.64c10.548,10.116,11.664,12.78,26.604,22.824
		c14.94,10.008,16.776,10.872,33.192,17.28c16.452,6.372,16.956,5.94,32.508,8.28c9.792,0.576,19.584,1.152,29.412,1.728
		c-5.868,4.176-9.612,5.796-19.044,10.044c-9.396,4.248-9.144,3.708-18.648,6.912c-9.54,3.204-13.14,4.14-19.368,5.904
		c0.216,0,0.432,0,0.684,0c0.36,1.728,0.684,2.556,6.228,4.464c5.508,1.908,6.12,3.384,15.912,3.132
		c9.756-0.288,8.208,1.728,23.184-4.14c14.94-5.904,20.7-11.952,36.648-19.404c15.876-7.416,13.212-6.912,26.964-10.368
		c13.716-3.456,18.648-3.456,28.008-3.456c0-0.108,0-0.216,0-0.324c0.684-2.088,0.432-3.492-2.412-5.544
		c-2.88-2.088-2.196-2.34-9-2.772c-6.84-0.432-11.52,0.612-18.324,1.044c-6.84,0.432-5.724,0.756-9,0.684
		c-1.512-0.36-3.024-0.684-4.5-1.044c3.456-0.324,5.796-1.26,14.184-5.508l0,0c8.388-4.248,8.46-3.924,19.368-11.412
		c10.872-7.56,11.412-6.156,24.192-18.684c12.816-12.528,15.912-17.82,27-31.464c11.052-13.68,8.784-11.916,17.28-23.148
		C321.948,105.588,324,103.176,329.544,95.94L329.544,95.94z"/>
</g>
</svg>
